<?xml version="1.0" standalone="no"?>
<!DOCTYPE svg PUBLIC "-//W3C//DTD SVG 20010904//EN"
 "http://www.w3.org/TR/2001/REC-SVG-20010904/DTD/svg10.dtd">
<svg version="1.0" xmlns="http://www.w3.org/2000/svg"
 width="700.000000pt" height="700.000000pt" viewBox="0 0 700.000000 700.000000"
 preserveAspectRatio="xMidYMid meet">
<metadata>
Created by potrace 1.14, written by Peter Selinger 2001-2017
</metadata>
<g transform="translate(0.000000,700.000000) scale(0.100000,-0.100000)"
fill="#000000" stroke="none">
<path d="M4100 6150 c-97 -27 -172 -116 -164 -198 7 -81 104 -180 185 -189
112 -12 208 93 193 212 -8 75 -43 133 -94 160 -32 17 -88 24 -120 15z"/>
<path d="M3595 6106 c-53 -25 -104 -74 -122 -116 -32 -78 25 -212 109 -256 34
-18 104 -23 148 -12 154 41 200 226 84 342 -71 71 -133 83 -219 42z"/>
<path d="M4451 6028 c-59 -30 -83 -65 -89 -127 -9 -93 41 -177 128 -216 34
-15 44 -16 70 -5 126 52 179 163 129 267 -45 93 -149 128 -238 81z"/>
<path d="M3027 6008 c-70 -15 -151 -61 -207 -117 -60 -61 -80 -106 -80 -184 0
-95 71 -255 144 -324 138 -129 447 -32 513 162 24 72 4 211 -43 291 -13 23
-46 62 -73 87 -85 76 -168 104 -254 85z"/>
<path d="M4800 5808 c-80 -41 -97 -115 -50 -208 55 -107 168 -125 249 -39 51
53 60 121 25 194 -35 75 -134 98 -224 53z"/>
<path d="M4061 5673 c-222 -37 -433 -151 -563 -304 -90 -107 -140 -250 -141
-404 0 -71 3 -90 38 -197 42 -128 71 -176 164 -269 88 -88 181 -156 306 -223
83 -45 98 -57 138 -115 27 -40 31 -53 32 -128 2 -46 -1 -101 -6 -121 -17 -75
-24 -181 -24 -362 1 -162 3 -194 22 -255 64 -203 225 -327 427 -327 158 0 365
82 480 191 100 93 196 298 242 514 4 20 21 106 29 147 2 8 6 44 10 80 4 36 9
76 11 90 5 32 5 315 -1 355 -2 17 -7 57 -11 90 -4 33 -8 62 -9 65 -1 3 -5 25
-9 50 -4 25 -15 72 -23 105 -8 33 -16 65 -17 70 -19 100 -139 366 -216 482
-72 106 -81 117 -163 201 -209 213 -464 307 -716 265z"/>
<path d="M3070 4324 c-73 -22 -151 -66 -196 -110 -53 -52 -78 -123 -78 -224
-1 -100 32 -170 125 -261 78 -76 124 -95 216 -86 195 20 337 152 337 313 0 53
-6 75 -42 147 -93 187 -219 264 -362 221z"/>
<path d="M2533 3858 c-52 -13 -127 -70 -147 -111 -36 -75 -24 -173 31 -237 42
-48 88 -65 161 -56 190 22 257 169 152 328 -48 73 -113 98 -197 76z"/>
<path d="M2200 3494 c-85 -39 -126 -87 -137 -157 -17 -107 77 -204 204 -212
111 -7 193 66 193 170 0 88 -93 208 -171 220 -24 4 -50 -2 -89 -21z"/>
<path d="M3030 3455 c-362 -58 -654 -341 -719 -695 -10 -55 -8 -281 3 -331 57
-257 171 -482 374 -736 65 -81 202 -225 254 -269 216 -177 603 -375 823 -421
192 -40 406 5 559 117 279 206 314 464 99 725 -90 109 -201 190 -412 303 -143
75 -182 109 -228 200 -26 52 -31 87 -18 147 18 87 21 133 19 270 -2 180 -13
247 -55 326 -56 105 -185 242 -281 298 -107 64 -270 89 -418 66z"/>
<path d="M2025 3104 c-103 -53 -133 -173 -68 -267 40 -57 99 -88 154 -81 56 7
128 50 152 91 82 141 -95 332 -238 257z"/>
<path d="M2020 2700 c-140 -24 -188 -193 -83 -292 36 -35 100 -57 135 -47 46
12 96 58 114 105 48 126 -44 256 -166 234z"/>
</g>
</svg>
